<mxfile host="Electron" modified="2024-03-26T19:08:58.759Z" agent="Mozilla/5.0 (Windows NT 10.0; Win64; x64) AppleWebKit/537.36 (KHTML, like Gecko) draw.io/23.0.2 Chrome/120.0.6099.109 Electron/28.1.0 Safari/537.36" etag="c6fHM_bdJ7qb38d5nARS" version="23.0.2" type="device">
  <diagram name="Página-1" id="nEvO1zs0BO6CrEbKnhpm">
    <mxGraphModel dx="880" dy="532" grid="1" gridSize="10" guides="1" tooltips="1" connect="1" arrows="1" fold="1" page="1" pageScale="1" pageWidth="827" pageHeight="1169" math="0" shadow="0">
      <root>
        <mxCell id="0" />
        <mxCell id="1" parent="0" />
        <mxCell id="UzfYkNcDKHKw9fiYelYs-2" value="Persona" style="swimlane;fontStyle=1;align=center;verticalAlign=top;childLayout=stackLayout;horizontal=1;startSize=26;horizontalStack=0;resizeParent=1;resizeParentMax=0;resizeLast=0;collapsible=1;marginBottom=0;whiteSpace=wrap;html=1;" vertex="1" parent="1">
          <mxGeometry x="370" y="510" width="160" height="112" as="geometry" />
        </mxCell>
        <mxCell id="UzfYkNcDKHKw9fiYelYs-3" value="+ nombre = string&amp;nbsp;" style="text;strokeColor=none;fillColor=none;align=left;verticalAlign=top;spacingLeft=4;spacingRight=4;overflow=hidden;rotatable=0;points=[[0,0.5],[1,0.5]];portConstraint=eastwest;whiteSpace=wrap;html=1;" vertex="1" parent="UzfYkNcDKHKw9fiYelYs-2">
          <mxGeometry y="26" width="160" height="26" as="geometry" />
        </mxCell>
        <mxCell id="UzfYkNcDKHKw9fiYelYs-6" value="+ edad = int" style="text;strokeColor=none;fillColor=none;align=left;verticalAlign=top;spacingLeft=4;spacingRight=4;overflow=hidden;rotatable=0;points=[[0,0.5],[1,0.5]];portConstraint=eastwest;whiteSpace=wrap;html=1;" vertex="1" parent="UzfYkNcDKHKw9fiYelYs-2">
          <mxGeometry y="52" width="160" height="26" as="geometry" />
        </mxCell>
        <mxCell id="UzfYkNcDKHKw9fiYelYs-4" value="" style="line;strokeWidth=1;fillColor=none;align=left;verticalAlign=middle;spacingTop=-1;spacingLeft=3;spacingRight=3;rotatable=0;labelPosition=right;points=[];portConstraint=eastwest;strokeColor=inherit;" vertex="1" parent="UzfYkNcDKHKw9fiYelYs-2">
          <mxGeometry y="78" width="160" height="8" as="geometry" />
        </mxCell>
        <mxCell id="UzfYkNcDKHKw9fiYelYs-5" value="+ mostrar()= str" style="text;strokeColor=none;fillColor=none;align=left;verticalAlign=top;spacingLeft=4;spacingRight=4;overflow=hidden;rotatable=0;points=[[0,0.5],[1,0.5]];portConstraint=eastwest;whiteSpace=wrap;html=1;" vertex="1" parent="UzfYkNcDKHKw9fiYelYs-2">
          <mxGeometry y="86" width="160" height="26" as="geometry" />
        </mxCell>
        <mxCell id="UzfYkNcDKHKw9fiYelYs-26" style="edgeStyle=orthogonalEdgeStyle;rounded=0;orthogonalLoop=1;jettySize=auto;html=1;endArrow=block;endFill=0;endSize=15;" edge="1" parent="1" source="UzfYkNcDKHKw9fiYelYs-7" target="UzfYkNcDKHKw9fiYelYs-2">
          <mxGeometry relative="1" as="geometry" />
        </mxCell>
        <mxCell id="UzfYkNcDKHKw9fiYelYs-31" style="edgeStyle=orthogonalEdgeStyle;rounded=0;orthogonalLoop=1;jettySize=auto;html=1;endArrow=diamondThin;endFill=1;endSize=15;" edge="1" parent="1" source="UzfYkNcDKHKw9fiYelYs-7" target="UzfYkNcDKHKw9fiYelYs-16">
          <mxGeometry relative="1" as="geometry" />
        </mxCell>
        <mxCell id="UzfYkNcDKHKw9fiYelYs-7" value="Empleados" style="swimlane;fontStyle=1;align=center;verticalAlign=top;childLayout=stackLayout;horizontal=1;startSize=26;horizontalStack=0;resizeParent=1;resizeParentMax=0;resizeLast=0;collapsible=1;marginBottom=0;whiteSpace=wrap;html=1;" vertex="1" parent="1">
          <mxGeometry x="360" y="690" width="180" height="112" as="geometry" />
        </mxCell>
        <mxCell id="UzfYkNcDKHKw9fiYelYs-8" value="+ sueldo_bruto = int" style="text;strokeColor=none;fillColor=none;align=left;verticalAlign=top;spacingLeft=4;spacingRight=4;overflow=hidden;rotatable=0;points=[[0,0.5],[1,0.5]];portConstraint=eastwest;whiteSpace=wrap;html=1;" vertex="1" parent="UzfYkNcDKHKw9fiYelYs-7">
          <mxGeometry y="26" width="180" height="26" as="geometry" />
        </mxCell>
        <mxCell id="UzfYkNcDKHKw9fiYelYs-9" value="" style="line;strokeWidth=1;fillColor=none;align=left;verticalAlign=middle;spacingTop=-1;spacingLeft=3;spacingRight=3;rotatable=0;labelPosition=right;points=[];portConstraint=eastwest;strokeColor=inherit;" vertex="1" parent="UzfYkNcDKHKw9fiYelYs-7">
          <mxGeometry y="52" width="180" height="8" as="geometry" />
        </mxCell>
        <mxCell id="UzfYkNcDKHKw9fiYelYs-10" value="+ mostrar() = str" style="text;strokeColor=none;fillColor=none;align=left;verticalAlign=top;spacingLeft=4;spacingRight=4;overflow=hidden;rotatable=0;points=[[0,0.5],[1,0.5]];portConstraint=eastwest;whiteSpace=wrap;html=1;" vertex="1" parent="UzfYkNcDKHKw9fiYelYs-7">
          <mxGeometry y="60" width="180" height="26" as="geometry" />
        </mxCell>
        <mxCell id="UzfYkNcDKHKw9fiYelYs-11" value="+ calc_salario_neto () = void" style="text;strokeColor=none;fillColor=none;align=left;verticalAlign=top;spacingLeft=4;spacingRight=4;overflow=hidden;rotatable=0;points=[[0,0.5],[1,0.5]];portConstraint=eastwest;whiteSpace=wrap;html=1;" vertex="1" parent="UzfYkNcDKHKw9fiYelYs-7">
          <mxGeometry y="86" width="180" height="26" as="geometry" />
        </mxCell>
        <mxCell id="UzfYkNcDKHKw9fiYelYs-27" style="edgeStyle=orthogonalEdgeStyle;rounded=0;orthogonalLoop=1;jettySize=auto;html=1;endArrow=block;endFill=0;endSize=15;" edge="1" parent="1" source="UzfYkNcDKHKw9fiYelYs-12" target="UzfYkNcDKHKw9fiYelYs-7">
          <mxGeometry relative="1" as="geometry" />
        </mxCell>
        <mxCell id="UzfYkNcDKHKw9fiYelYs-12" value="Directivos" style="swimlane;fontStyle=1;align=center;verticalAlign=top;childLayout=stackLayout;horizontal=1;startSize=26;horizontalStack=0;resizeParent=1;resizeParentMax=0;resizeLast=0;collapsible=1;marginBottom=0;whiteSpace=wrap;html=1;" vertex="1" parent="1">
          <mxGeometry x="550" y="840" width="160" height="86" as="geometry" />
        </mxCell>
        <mxCell id="UzfYkNcDKHKw9fiYelYs-13" value="- categoría = str" style="text;strokeColor=none;fillColor=none;align=left;verticalAlign=top;spacingLeft=4;spacingRight=4;overflow=hidden;rotatable=0;points=[[0,0.5],[1,0.5]];portConstraint=eastwest;whiteSpace=wrap;html=1;" vertex="1" parent="UzfYkNcDKHKw9fiYelYs-12">
          <mxGeometry y="26" width="160" height="26" as="geometry" />
        </mxCell>
        <mxCell id="UzfYkNcDKHKw9fiYelYs-14" value="" style="line;strokeWidth=1;fillColor=none;align=left;verticalAlign=middle;spacingTop=-1;spacingLeft=3;spacingRight=3;rotatable=0;labelPosition=right;points=[];portConstraint=eastwest;strokeColor=inherit;" vertex="1" parent="UzfYkNcDKHKw9fiYelYs-12">
          <mxGeometry y="52" width="160" height="8" as="geometry" />
        </mxCell>
        <mxCell id="UzfYkNcDKHKw9fiYelYs-15" value="+ mostrar() = str" style="text;strokeColor=none;fillColor=none;align=left;verticalAlign=top;spacingLeft=4;spacingRight=4;overflow=hidden;rotatable=0;points=[[0,0.5],[1,0.5]];portConstraint=eastwest;whiteSpace=wrap;html=1;" vertex="1" parent="UzfYkNcDKHKw9fiYelYs-12">
          <mxGeometry y="60" width="160" height="26" as="geometry" />
        </mxCell>
        <mxCell id="UzfYkNcDKHKw9fiYelYs-16" value="Empresa" style="swimlane;fontStyle=1;align=center;verticalAlign=top;childLayout=stackLayout;horizontal=1;startSize=26;horizontalStack=0;resizeParent=1;resizeParentMax=0;resizeLast=0;collapsible=1;marginBottom=0;whiteSpace=wrap;html=1;" vertex="1" parent="1">
          <mxGeometry x="70" y="720" width="160" height="52" as="geometry" />
        </mxCell>
        <mxCell id="UzfYkNcDKHKw9fiYelYs-17" value="- nombre" style="text;strokeColor=none;fillColor=none;align=left;verticalAlign=top;spacingLeft=4;spacingRight=4;overflow=hidden;rotatable=0;points=[[0,0.5],[1,0.5]];portConstraint=eastwest;whiteSpace=wrap;html=1;" vertex="1" parent="UzfYkNcDKHKw9fiYelYs-16">
          <mxGeometry y="26" width="160" height="26" as="geometry" />
        </mxCell>
        <mxCell id="UzfYkNcDKHKw9fiYelYs-30" style="edgeStyle=orthogonalEdgeStyle;rounded=0;orthogonalLoop=1;jettySize=auto;html=1;strokeColor=default;endArrow=block;endFill=0;startSize=6;endSize=15;" edge="1" parent="1" source="UzfYkNcDKHKw9fiYelYs-20" target="UzfYkNcDKHKw9fiYelYs-2">
          <mxGeometry relative="1" as="geometry" />
        </mxCell>
        <mxCell id="UzfYkNcDKHKw9fiYelYs-33" style="edgeStyle=orthogonalEdgeStyle;rounded=0;orthogonalLoop=1;jettySize=auto;html=1;endArrow=diamond;endFill=0;endSize=15;" edge="1" parent="1" source="UzfYkNcDKHKw9fiYelYs-20" target="UzfYkNcDKHKw9fiYelYs-16">
          <mxGeometry relative="1" as="geometry">
            <Array as="points">
              <mxPoint x="200" y="660" />
              <mxPoint x="150" y="660" />
            </Array>
          </mxGeometry>
        </mxCell>
        <mxCell id="UzfYkNcDKHKw9fiYelYs-20" value="Cliente" style="swimlane;fontStyle=1;align=center;verticalAlign=top;childLayout=stackLayout;horizontal=1;startSize=26;horizontalStack=0;resizeParent=1;resizeParentMax=0;resizeLast=0;collapsible=1;marginBottom=0;whiteSpace=wrap;html=1;" vertex="1" parent="1">
          <mxGeometry x="120" y="523" width="160" height="86" as="geometry" />
        </mxCell>
        <mxCell id="UzfYkNcDKHKw9fiYelYs-21" value="- tel_de_contacto = int&lt;span style=&quot;white-space: pre;&quot;&gt;&#x9;&lt;/span&gt;" style="text;strokeColor=none;fillColor=none;align=left;verticalAlign=top;spacingLeft=4;spacingRight=4;overflow=hidden;rotatable=0;points=[[0,0.5],[1,0.5]];portConstraint=eastwest;whiteSpace=wrap;html=1;" vertex="1" parent="UzfYkNcDKHKw9fiYelYs-20">
          <mxGeometry y="26" width="160" height="26" as="geometry" />
        </mxCell>
        <mxCell id="UzfYkNcDKHKw9fiYelYs-22" value="" style="line;strokeWidth=1;fillColor=none;align=left;verticalAlign=middle;spacingTop=-1;spacingLeft=3;spacingRight=3;rotatable=0;labelPosition=right;points=[];portConstraint=eastwest;strokeColor=inherit;" vertex="1" parent="UzfYkNcDKHKw9fiYelYs-20">
          <mxGeometry y="52" width="160" height="8" as="geometry" />
        </mxCell>
        <mxCell id="UzfYkNcDKHKw9fiYelYs-23" value="+ mostrar () = int" style="text;strokeColor=none;fillColor=none;align=left;verticalAlign=top;spacingLeft=4;spacingRight=4;overflow=hidden;rotatable=0;points=[[0,0.5],[1,0.5]];portConstraint=eastwest;whiteSpace=wrap;html=1;" vertex="1" parent="UzfYkNcDKHKw9fiYelYs-20">
          <mxGeometry y="60" width="160" height="26" as="geometry" />
        </mxCell>
        <mxCell id="UzfYkNcDKHKw9fiYelYs-34" style="edgeStyle=orthogonalEdgeStyle;rounded=0;orthogonalLoop=1;jettySize=auto;html=1;entryX=0.563;entryY=-0.023;entryDx=0;entryDy=0;entryPerimeter=0;endArrow=none;endFill=0;" edge="1" parent="1" source="UzfYkNcDKHKw9fiYelYs-7" target="UzfYkNcDKHKw9fiYelYs-12">
          <mxGeometry relative="1" as="geometry" />
        </mxCell>
        <mxCell id="UzfYkNcDKHKw9fiYelYs-50" value="Subordinados" style="text;html=1;align=center;verticalAlign=middle;resizable=0;points=[];autosize=1;strokeColor=none;fillColor=none;" vertex="1" parent="1">
          <mxGeometry x="590" y="760" width="100" height="30" as="geometry" />
        </mxCell>
        <mxCell id="UzfYkNcDKHKw9fiYelYs-52" value="0..*" style="text;html=1;align=center;verticalAlign=middle;resizable=0;points=[];autosize=1;strokeColor=none;fillColor=none;" vertex="1" parent="1">
          <mxGeometry x="540" y="720" width="40" height="30" as="geometry" />
        </mxCell>
        <mxCell id="UzfYkNcDKHKw9fiYelYs-53" value="1..*" style="text;html=1;align=center;verticalAlign=middle;resizable=0;points=[];autosize=1;strokeColor=none;fillColor=none;" vertex="1" parent="1">
          <mxGeometry x="600" y="810" width="40" height="30" as="geometry" />
        </mxCell>
        <mxCell id="UzfYkNcDKHKw9fiYelYs-54" value="Empleados" style="text;html=1;align=center;verticalAlign=middle;resizable=0;points=[];autosize=1;strokeColor=none;fillColor=none;" vertex="1" parent="1">
          <mxGeometry x="290" y="720" width="80" height="30" as="geometry" />
        </mxCell>
        <mxCell id="UzfYkNcDKHKw9fiYelYs-56" value="1..*" style="text;html=1;align=center;verticalAlign=middle;resizable=0;points=[];autosize=1;strokeColor=none;fillColor=none;" vertex="1" parent="1">
          <mxGeometry x="320" y="742" width="40" height="30" as="geometry" />
        </mxCell>
        <mxCell id="UzfYkNcDKHKw9fiYelYs-57" value="1" style="text;html=1;align=center;verticalAlign=middle;resizable=0;points=[];autosize=1;strokeColor=none;fillColor=none;" vertex="1" parent="1">
          <mxGeometry x="240" y="742" width="30" height="30" as="geometry" />
        </mxCell>
        <mxCell id="UzfYkNcDKHKw9fiYelYs-58" value="Cliente" style="text;html=1;align=center;verticalAlign=middle;resizable=0;points=[];autosize=1;strokeColor=none;fillColor=none;" vertex="1" parent="1">
          <mxGeometry x="140" y="609" width="60" height="30" as="geometry" />
        </mxCell>
        <mxCell id="UzfYkNcDKHKw9fiYelYs-59" value="0..*" style="text;html=1;align=center;verticalAlign=middle;resizable=0;points=[];autosize=1;strokeColor=none;fillColor=none;" vertex="1" parent="1">
          <mxGeometry x="200" y="609" width="40" height="30" as="geometry" />
        </mxCell>
        <mxCell id="UzfYkNcDKHKw9fiYelYs-60" value="1..*" style="text;html=1;align=center;verticalAlign=middle;resizable=0;points=[];autosize=1;strokeColor=none;fillColor=none;" vertex="1" parent="1">
          <mxGeometry x="100" y="690" width="40" height="30" as="geometry" />
        </mxCell>
      </root>
    </mxGraphModel>
  </diagram>
</mxfile>
